<svg width="623" height="1596" viewBox="0 0 623 1596" fill="none" xmlns="http://www.w3.org/2000/svg">
<g clip-path="url(#clip0_4_749)">
<path d="M622.646 796.11V796.02C621.946 785.9 621.126 770.56 619.296 751.91C618.826 746.93 618.346 741.76 617.846 736.42V736.33C615.466 713.34 612.216 687.03 608.046 661.35L608.026 661.26C607.506 657.92 606.986 654.59 606.486 651.43C602.746 630.28 598.766 609.96 594.466 592.79C591.926 582.08 589.186 572.56 586.546 564.8C583.626 555.98 580.885 549.53 578.596 546.16C577.546 544.59 576.516 542.65 575.376 540.12C572.296 533.24 569.336 523.15 566.236 510.65C565.256 506.81 564.196 502.69 563.106 498.39C557.436 475.83 550.706 447.73 541.836 419.18C540.076 413.56 538.186 407.78 536.256 402.11C527.146 374.82 515.596 347.47 502.716 325.56C499.926 320.66 497.006 315.94 493.876 311.61C487.896 302.95 479.816 291.23 470.156 277.23C460.486 263.44 449.466 247.49 436.366 230.76C435.966 230.19 435.566 229.63 435.096 229.1L429.746 221.96L425.596 216.53C412.226 232.46 397.696 247.83 382.566 262.44C358.696 285.5 333.376 306.75 308.556 325.46C312.916 310.38 322.396 296.32 327.356 280.57C329.046 275.44 331.096 270.14 333.316 264.88C334.066 263.14 334.826 261.39 335.636 259.55C335.716 259.4 335.776 259.36 335.726 259.29C340.666 248.29 346.356 237 351.126 225.6C351.876 223.93 352.576 222.17 353.206 220.45C355.976 213.55 358.166 206.77 359.396 200.08C361.256 190.66 362.986 181.93 364.636 173.58C365.006 173.18 365.366 172.77 365.746 172.37C365.376 172.73 365.026 173.13 364.656 173.49C364.656 173.47 364.656 173.44 364.666 173.42C366.276 165.61 367.806 158.19 369.346 150.71C360.186 141.32 350.996 131.9 341.856 122.53C332.296 113.58 322.796 104.69 313.446 95.9399C301.906 86.0499 290.516 76.4299 279.446 67.4299C270.836 60.7699 262.406 54.4499 254.326 48.5499C242.446 39.7599 230.426 32.4299 220.026 25.8799C208.556 18.6499 197.586 13.3899 188.946 9.20988C180.206 5.10988 173.246 2.51988 168.296 1.86988C150.186 -0.860118 124.816 0.279883 99.3956 6.01988C74.3356 11.1399 49.4856 20.8599 32.2256 30.7299C20.1656 37.6499 11.4856 44.6799 7.99557 50.7499C1.34557 62.4899 0.975574 78.3899 1.30557 93.2199C1.67557 108.13 2.92557 121.78 0.715574 130.68C-0.534426 135.25 11.1456 153.81 27.8056 182.64C29.5056 185.76 31.3156 189.06 33.1556 192.44C34.9656 195.81 36.8656 199.25 38.9056 202.7L38.8556 202.75C40.1256 205 41.4356 207.3 42.7656 209.65C44.0056 212.09 45.2756 214.58 46.5656 217.11C47.3256 218.59 48.1456 220.19 48.9656 221.79L49.1556 222.17C51.8656 227.53 54.8456 232.79 57.5956 238.58C60.3256 244.32 63.1456 250.24 66.0256 256.3C68.5856 261.37 70.9356 266.97 73.3456 272.51C77.0656 281.08 81.0656 289.66 84.6156 299C84.9056 299.71 85.2256 300.47 85.5156 301.18C88.1856 308 91.1856 314.66 93.6556 321.91L93.6756 321.94C93.3356 322.15 92.9856 322.34 92.6456 322.56C92.9956 322.37 93.3656 322.21 93.7156 322.03C95.2756 326.21 96.8156 330.31 98.4056 334.55C102.136 343.87 105.066 353.97 108.636 363.66C110.186 367.99 111.576 372.55 112.966 377.08C115.806 386.5 119.026 395.63 121.626 405.34C124.386 414.91 127.346 424.34 129.806 434.18C131.306 439.68 132.806 445.2 134.316 450.73L138.456 467.53C141.476 478.53 143.746 489.96 146.526 500.97C146.146 500.99 145.766 501.04 145.376 501.06C145.766 501.06 146.146 501.02 146.536 501.01C146.536 501.01 146.536 501.02 146.536 501.03C146.766 501.93 146.986 502.77 147.236 503.73L147.266 503.79C148.776 510.74 150.306 517.8 151.816 524.73C152.966 529.47 154.016 534.35 155.026 539.34C156.006 544.08 156.996 548.82 158.126 553.49C158.896 556.72 159.686 559.93 160.316 563.25C160.916 566.14 161.506 569.02 162.086 571.84L162.266 572.64L164.376 582.46C164.586 583.32 164.806 584.25 165.006 585.11C165.546 587.35 165.936 589.69 166.376 591.92C167.346 596.79 168.376 601.64 169.476 606.39C169.636 607.2 169.796 608.01 170.016 608.73C204.956 611.26 240.326 612.87 274.796 622.19C298.426 628.74 326.726 637.64 350.876 636.95C320.736 639.7 288.066 642.39 256.276 644.06C248.146 644.52 239.996 644.86 231.976 645.12C220.926 645.43 201.366 647.75 181.126 649.04C183.926 657.48 187.086 665.01 190.256 672.23C203.076 701.83 218.226 722.54 230.556 749.67C232.846 754.51 234.796 759.71 236.776 765.14C239.996 774.19 243.256 783.21 246.176 792.56L250.266 805.61C252.216 811.45 253.986 817.3 255.666 823.28C255.956 824.24 256.236 825.14 256.526 826.11C258.556 833.05 260.596 839.99 262.606 846.86V846.92C262.276 846.88 261.936 846.83 261.586 846.79C261.936 846.85 262.276 846.91 262.616 846.97C263.036 848.55 263.446 850.05 263.856 851.61L267.326 864.3C269.566 872.21 271.726 880.2 273.816 888.17C276.036 896.44 278.236 904.64 280.416 912.77C282.846 921.72 285.226 930.53 287.576 939.19C291.836 955.02 296.316 970.27 300.846 985.07C303.146 992.57 305.436 999.39 307.926 1006.93C310.466 1014.83 313.086 1022.46 315.776 1029.81C315.776 1029.81 319.136 1033.2 324.926 1039.03C330.736 1044.79 338.856 1053.14 348.606 1062.36C367.976 1081.33 393.436 1104.07 416.176 1126.27C420.866 1130.86 425.496 1135.58 430.076 1140.29C435.616 1146.04 441.146 1151.8 446.296 1157.74C448.156 1159.94 450.006 1162.12 451.756 1164.19C451.766 1164.21 451.786 1164.22 451.796 1164.24C452.706 1175.45 453.476 1186.51 453.906 1197.25C456.636 1267.81 451.656 1327.08 448.376 1369.04C446.626 1390.04 445.066 1406.75 443.856 1418.46C442.736 1430.18 422.046 1593.49 422.196 1594.57C424.476 1611.79 476.976 1442.38 476.976 1442.38C476.976 1442.38 478.646 1429.76 481.426 1408.79C483.916 1387.75 487.066 1358.23 489.146 1324.27C489.526 1315.76 491.226 1286.87 490.746 1242.33C490.626 1225.66 489.856 1206.73 488.356 1185.99L488.416 1185.91C499.236 1173.41 512.686 1147.15 525.656 1113.66V1113.57C527.756 1107.98 529.906 1102.28 532.136 1096.38C533.646 1092.23 535.186 1088 536.726 1083.78L538.626 1078.48C538.672 1078.48 538.692 1078.45 538.686 1078.39C541.666 1069.96 544.706 1061.33 547.816 1052.53C554.176 1035.24 560.616 1017.83 567.346 1001.12C574.126 985.42 580.596 965.53 586.636 947.39V947.31C609.366 877.63 623.706 813.35 622.646 796.1V796.11Z" fill="#152B25"/>
<path d="M540.636 1183.72C541.396 1181.52 541.946 1179.32 542.276 1177.06C539.786 1179.3 538.946 1181.49 540.636 1183.72Z" fill="#152B25"/>
</g>
<defs>
<clipPath id="clip0_4_749">
<rect width="622.08" height="1595.31" fill="white" transform="translate(0.625488 0.5)"/>
</clipPath>
</defs>
</svg>
