<svg width="856" height="1549" viewBox="0 0 856 1549" fill="none" xmlns="http://www.w3.org/2000/svg">
<g clip-path="url(#clip0_4_747)">
<path d="M0.775488 146.01C1.04549 145.43 1.36549 144.87 1.64549 144.29C1.13549 144.26 0.635488 144.23 0.125488 144.2C0.335488 144.79 0.565488 145.42 0.775488 146.01Z" fill="#BCD873"/>
<path d="M571.016 907.37C575.736 916.73 580.386 926.02 584.966 935.27C588.506 921.34 607.595 891.54 688.755 836.25C808.785 754.5 817.586 719.85 817.656 719.51L819.425 719.87C813.335 705.97 806.586 692.18 799.466 678.46C794.486 685.54 756.055 738.17 676.625 796.14C595.215 855.56 576.996 886.84 571.016 907.37Z" fill="#7EA451"/>
<path d="M381.045 1059.38L381.375 1057.59C382.035 1057.68 399.475 1059.67 495.895 1025.77C554.705 1005.1 580.435 1002.91 591.465 1005.92C586.665 995.65 581.855 985.45 576.985 975.27C568.355 973.03 516.975 964.88 357.805 1026.96C366.195 1039.21 373.755 1049.53 381.035 1059.38H381.045Z" fill="#7EA451"/>
<path d="M231.145 465.33C217.645 469.7 196.255 477.4 177.885 483.78C167.965 487.22 158.915 490.28 152.505 492.2C152.295 492.26 152.085 492.33 151.865 492.39C144.555 494.59 136.975 497.08 131.755 502.63C127.625 507.03 124.455 512.71 123.805 518.71C122.625 529.63 122.635 540.45 123.575 551.18C257.455 500.17 320.285 511.94 337.945 517.51C331.425 504.4 322.345 486.04 311.565 463.96C303.365 463.17 264.755 460 231.525 467.1L231.145 465.32V465.33Z" fill="#7EA451"/>
<path d="M184.536 141.95C189.026 152.22 194.046 163.59 199.556 175.94C249.246 99.8602 263.286 38.2402 263.426 37.6102L265.196 38.0002C256.646 30.7102 248.536 22.7002 239.086 16.6802C237.266 23.2702 218.916 87.6702 184.526 141.94L184.536 141.95Z" fill="#7EA451"/>
<path d="M471.325 1205.08L470.635 1203.41C576.405 1159.92 644.875 1162.42 661.335 1163.87C657.055 1153.74 652.835 1143.83 648.695 1134.17C638.505 1133.07 580.215 1130.03 459.305 1183.03C463.015 1189.87 467.065 1197.33 471.315 1205.08H471.325Z" fill="#7EA451"/>
<path d="M468.216 1128.43C455.716 1133.3 445.756 1137.18 435.696 1140.42C438.886 1145.9 442.206 1151.73 445.676 1157.99L445.516 1156.18C449.226 1155.85 455.426 1153.42 466.686 1149.01C480.636 1143.55 501.726 1135.3 536.626 1123.55C590.216 1105.5 626.366 1107.86 638.016 1109.37C635.466 1103.5 632.936 1097.72 630.416 1091.99C626.316 1090.54 599.186 1082.47 545.086 1100.5C509.266 1112.44 486.506 1121.31 468.226 1128.43H468.216Z" fill="#7EA451"/>
<path d="M588.045 938.41C587.885 939.53 587.875 940.47 587.925 941.26C589.515 944.49 591.136 947.73 592.706 950.94C595.966 933.62 616.576 902.23 694.086 849.44C814.116 767.68 822.915 733.04 822.995 732.7L824.995 733.11C823.555 729.54 822.066 725.97 820.526 722.41C817.056 731.19 797.355 766.68 690.805 839.25C605.235 897.53 589.695 926.39 588.045 938.4V938.41Z" fill="#7EA451"/>
<path d="M468.005 1152.4C456.745 1156.8 450.795 1159.12 446.605 1159.69C446.935 1160.28 447.255 1160.85 447.585 1161.45C450.375 1166.52 453.765 1172.8 457.575 1179.82C574.195 1128.65 632.075 1129 647.055 1130.32C644.585 1124.57 642.135 1118.9 639.705 1113.29C631.775 1112.09 594.185 1107.98 537.785 1126.98C502.965 1138.71 481.935 1146.94 468.005 1152.39V1152.4Z" fill="#7EA451"/>
<path d="M718.175 1228.28C722.625 1238.85 726.995 1249.3 731.295 1259.63C796.505 1225.6 840.675 1180.06 841.115 1179.6L842.365 1180.8C846.045 1159.18 848.755 1137.37 850.665 1115.41C843.045 1122.41 807.675 1154.44 780.615 1171.27C750.915 1189.74 722.245 1219.19 718.165 1228.29L718.175 1228.28Z" fill="#7EA451"/>
<path d="M471.845 1110.87C449.565 1119.07 434.675 1124.52 426.955 1125.79C429.175 1129.42 431.455 1133.22 433.805 1137.21C444.025 1133.95 454.125 1130.01 466.885 1125.04C485.205 1117.9 508.015 1109.01 543.915 1097.05C591.875 1081.07 618.885 1085.05 628.455 1087.58C626.335 1082.77 624.225 1078 622.125 1073.27C616.015 1072.27 590.965 1069.92 541.095 1086.41C514.045 1095.35 490.635 1103.96 471.825 1110.88L471.845 1110.87Z" fill="#7EA451"/>
<path d="M513.985 1277.1L513.385 1275.39C632.415 1233.3 678.125 1233.6 691.095 1235.2C685.735 1222.19 680.505 1209.57 675.415 1197.37C665.385 1195.72 607.405 1189.4 488.575 1235.84C497.425 1251.23 506.275 1265.88 513.995 1277.11L513.985 1277.1Z" fill="#7EA451"/>
<path d="M596.136 952.41C595.796 954.56 595.815 956.27 595.975 957.66C599.885 965.66 603.736 973.61 607.546 981.52C616.226 953.64 651.246 917.5 711.866 873.93C799.436 810.99 831.316 754.83 831.626 754.28L833.216 755.16C830.976 748.55 828.526 741.98 825.926 735.43C822.676 743.87 803.496 779.34 696.136 852.46C614.086 908.35 598.266 939.08 596.146 952.42L596.136 952.41Z" fill="#7EA451"/>
<path d="M450.135 320.75C399.215 380.95 354.365 456.51 345.625 482.37C348.725 488.51 351.855 494.69 355.025 500.92C362.345 485.47 390.785 429.37 444.125 369.38C506.115 299.68 531.175 227.16 531.425 226.43L533.125 227.01C528.895 220.45 524.385 214.12 519.435 208.17C515.155 203.01 510.486 198.31 505.546 193.95C504.555 203.74 496.576 265.86 450.135 320.75Z" fill="#7EA451"/>
<path d="M487.645 1234.22L486.985 1232.54C601.095 1187.91 658.595 1191.27 673.755 1193.4C670.095 1184.64 666.495 1176.07 662.955 1167.68C651.615 1166.43 582.525 1161.38 472.215 1206.7C477.185 1215.73 482.405 1225.08 487.645 1234.22Z" fill="#7EA451"/>
<path d="M255.255 297.3C259.035 305.33 262.925 313.54 266.915 321.92C336.425 222.79 360.035 105.89 360.266 104.71L362.046 105.06C355.186 98.1201 348.985 90.3201 342.365 83.1001C340.355 96.8601 322.615 206.03 255.245 297.3H255.255Z" fill="#7EA451"/>
<path d="M268.715 325.71C276.665 342.38 285.005 359.73 293.755 377.73C296.805 369.24 306.905 345.67 338.355 295.42C378.685 231 400.105 135.25 400.315 134.29L402.105 134.68C388.155 126.72 374.995 117.74 363.595 106.56C361.025 118.69 335.995 230.66 268.715 325.7V325.71Z" fill="#7EA451"/>
<path d="M636.855 1043.62C641.045 1052.67 645.185 1061.67 649.255 1070.59C664.845 1035.67 696.965 998.2 742.595 961.9C808.395 909.54 849.126 848.2 849.526 847.59L851.026 848.58C850.286 838.55 849.265 828.55 847.925 818.61C839.995 829.12 791.015 892.18 714.305 950.95C642.995 1005.58 637.145 1036.37 636.855 1043.63V1043.62Z" fill="#7EA451"/>
<path d="M343.486 1005.33L342.836 1003.63C498.846 943.72 549.196 945.02 564.306 949.01C558.336 936.77 552.266 924.47 546.036 912C536.406 909.04 474.596 895.28 319.426 965.83C328.276 981.03 336.216 993.97 343.486 1005.32V1005.33Z" fill="#7EA451"/>
<path d="M285.205 904.46L284.715 902.66C449.855 857.96 506.975 862.73 522.845 866.22C520.695 862.03 518.525 857.8 516.325 853.54C506.505 851.42 444.975 842.14 277.065 892.57C280.025 896.41 282.745 900.35 285.195 904.45L285.205 904.46Z" fill="#7EA451"/>
<path d="M542.956 852.79C545.796 858.22 548.636 863.65 551.426 869.05C560.836 842.74 600.926 804.61 673.616 752.77C753.416 695.88 777.226 640.69 777.456 640.14L779.136 640.84C774.876 633.17 770.566 625.5 766.286 617.84C763.076 626.46 744.176 667.57 658.416 728.88C573.176 789.83 548.536 838.99 542.946 852.78L542.956 852.79Z" fill="#7EA451"/>
<path d="M609.985 986.6C612.645 992.15 615.275 997.67 617.885 1003.17C622.125 988.14 638.416 955.5 720.216 896.71C807.766 833.78 838.305 778.18 838.605 777.63L840.175 778.47C838.345 771.43 836.266 764.43 833.956 757.46C828.426 766.58 794.585 818.95 713.985 876.88C650.895 922.22 615.965 959.11 609.985 986.61V986.6Z" fill="#7EA451"/>
<path d="M225.436 233.16C227.116 236.84 228.836 240.57 230.576 244.35C282.216 175.21 303.056 59.3801 303.266 58.2001L305.046 58.5101C301.506 57.3701 297.936 56.2801 294.416 55.1001C293.646 58.0201 265.946 161.81 225.436 233.16Z" fill="#7EA451"/>
<path d="M553.845 873.75C558.865 883.47 563.795 893.14 568.665 902.75C575.915 881.63 596.755 849.93 674.485 793.2C758.945 731.56 796.646 676.17 797.016 675.62L798.526 676.63C792.626 665.32 786.475 654.05 780.245 642.81C776.215 651.38 749.805 702.91 675.745 755.72C601.165 808.9 560.235 848.57 553.865 873.74L553.845 873.75Z" fill="#7EA451"/>
<path d="M344.495 1006.9C348.795 1013.59 352.876 1019.72 356.766 1025.43L356.095 1023.72C504.675 965.72 559.686 968.16 574.966 971.05C572.186 965.25 569.385 959.45 566.565 953.65C559.885 950.52 519.495 939.73 344.495 1006.9Z" fill="#7EA451"/>
<path d="M275.865 891.05L275.335 889.3C433.915 841.6 497.485 846.47 514.175 849.38C510.755 842.76 507.275 836.06 503.735 829.25C491.145 827.4 402.945 817.21 255.766 867.76C262.856 875.83 269.765 883.32 275.865 891.05Z" fill="#7EA451"/>
<path d="M287.475 908.37C299.005 929.94 309.245 948.3 318.495 964.24L317.745 962.6C463.125 896.47 526.505 903.34 543.805 907.56C537.735 895.44 531.505 883.15 525.076 870.59C516.566 868.05 464.795 857.71 286.115 906.04C286.565 906.82 287.045 907.58 287.465 908.37H287.475Z" fill="#7EA451"/>
<path d="M497.106 1029.21C413.656 1058.54 388.576 1061.21 382.426 1061.26C389.556 1070.87 396.456 1080.11 403.646 1090.33L403.266 1088.56C403.906 1088.43 467.686 1074.65 526.926 1048.99C573.566 1028.78 595.916 1030.91 604.026 1033.13C600.596 1025.63 597.166 1018.19 593.726 1010.8C593.606 1010.72 593.526 1010.65 593.386 1010.57C588.376 1007.76 568.976 1003.96 497.106 1029.22V1029.21Z" fill="#7EA451"/>
<path d="M232.315 248.12C236.415 257 240.675 266.18 245.085 275.63C302.245 186.21 327.125 71.3703 327.375 70.2003L328.985 70.5403C325.965 68.1803 322.815 65.9903 319.365 64.1903C315.345 62.0903 311.105 60.5203 306.795 59.0903C305.845 64.3203 284.385 179.71 232.315 248.11V248.12Z" fill="#7EA451"/>
<path d="M357.125 505.05C360.815 512.3 364.565 519.63 368.355 527.01C373.905 509.53 399.545 473.32 442.625 422.44C533.085 315.61 547.776 256.71 547.906 256.13L549.646 256.54C544.956 247.04 539.945 237.77 534.385 228.96C530.686 239.12 504.725 306.72 446.845 371.81C390.045 435.68 361.705 495 357.115 505.06L357.125 505.05Z" fill="#7EA451"/>
<path d="M528.386 1052.31C472.256 1076.63 412.106 1090.32 404.796 1091.94C411.436 1101.42 418.346 1111.81 425.936 1124.12L425.686 1122.33C432.796 1121.36 448.646 1115.52 470.596 1107.45C489.436 1100.52 512.865 1091.9 539.975 1082.94C586.095 1067.69 611.116 1068.23 620.386 1069.33C615.566 1058.52 610.786 1047.91 606.016 1037.44L605.886 1037.65C605.696 1037.54 586.476 1027.14 528.386 1052.3V1052.31Z" fill="#7EA451"/>
<path d="M201.315 179.9C208.015 194.89 215.435 211.32 223.555 229.08C263.495 157.56 290.645 55.1203 290.925 54.0703L292.695 54.5303C289.625 53.4503 286.595 52.2603 283.675 50.8103C277.515 47.7703 272.035 43.7003 266.755 39.3003C264.815 47.2703 249.115 107.36 201.315 179.89V179.9Z" fill="#7EA451"/>
<path d="M564.045 1329.56L563.345 1327.9C650.975 1290.81 699.935 1288.65 713.065 1288.88C710.475 1282.51 707.925 1276.25 705.395 1270.08C694.995 1269.51 638.065 1268.78 542.535 1310.56C549.325 1317.2 556.505 1323.55 564.045 1329.56Z" fill="#7EA451"/>
<path d="M522.015 1288.04C527.915 1295.36 534.315 1302.4 541.105 1309.15L540.385 1307.51C632.585 1267.07 689.485 1265.88 703.875 1266.37C700.085 1257.09 696.355 1248.01 692.705 1239.14C684.615 1237.77 641.165 1234.1 515.045 1278.65C517.495 1282.17 519.835 1285.34 522.005 1288.03L522.015 1288.04Z" fill="#7EA451"/>
<path d="M704.146 1195.19C726.566 1152.59 847.415 1068.55 852.735 1064.87L853.725 1066.31C854.315 1051.88 854.665 1037.42 854.826 1022.95C844.085 1030.05 746.505 1095.9 695.875 1175.92C698.665 1182.39 701.416 1188.82 704.146 1195.2V1195.19Z" fill="#7EA451"/>
<path d="M246.906 279.53C249.066 284.14 251.246 288.8 253.476 293.54C323.566 197.55 338.815 82.3501 338.955 81.1901L340.745 81.4201C337.555 78.0301 334.256 74.8101 330.715 71.8901C328.315 82.6701 302.686 193.32 246.896 279.54L246.906 279.53Z" fill="#7EA451"/>
<path d="M411.606 309.25C359.786 376.3 330.976 435.25 328.296 447.86C333.226 457.73 338.246 467.75 343.376 477.91C354.626 448.75 397.416 377.45 447.366 318.4C496.876 259.87 502.006 193 502.046 192.33L503.846 192.45C493.846 183.88 482.716 176.67 471.026 170.11C470.126 178.08 461.276 244.99 411.606 309.25Z" fill="#7EA451"/>
<path d="M738.135 1276.11C751.145 1307.51 763.505 1337.78 775.345 1366.78C776.715 1370.14 778.046 1373.4 779.406 1376.71C795.446 1344.78 805.685 1312.1 817.795 1277.68C824.825 1257.7 830.495 1237.41 835.195 1216.9C826.145 1223.62 784.136 1254.15 741.656 1274.48C740.486 1275.04 739.316 1275.58 738.146 1276.12L738.135 1276.11Z" fill="#7EA451"/>
<path d="M477.205 731.66C490.475 708.35 563.895 640.87 567.235 637.81L569.695 640.49C546.255 661.98 485.916 719.52 479.296 735.46C483.926 743.85 488.585 752.28 493.305 760.76C493.995 762 494.666 763.23 495.355 764.47C503.175 749.54 536.016 692.47 605.576 639.39C685.206 578.64 710.995 511.88 711.245 511.22L712.956 511.86C711.556 508.34 710.186 504.82 708.885 501.29C706.846 495.73 699.475 494.79 696.005 499.59C689.205 508.99 679.225 524.74 671.845 533.7C659.685 548.47 648.465 562.36 634.766 575.72C617.306 592.74 590.905 620.89 573.445 637.92C570.785 640.52 566.395 637.69 567.725 634.22C579.695 602.82 607.195 563.48 627.165 536.45C634.135 527.01 641.546 517.92 648.956 508.82C659.816 495.49 671.755 488.51 682.615 475.18C683.265 465.08 675.395 456.87 667.725 450.04C664.485 457.64 631.555 527.55 454.865 690.86C462.175 704.32 469.625 717.93 477.185 731.65L477.205 731.66Z" fill="#7EA451"/>
<path d="M453.086 687.57C635.216 519.12 664.335 448.79 664.605 448.1L666.296 448.76C658.695 442.12 651.536 435.01 644.746 427.56C640.316 435.38 582.216 535.4 441.156 665.48C445.096 672.8 449.066 680.16 453.086 687.57Z" fill="#7EA451"/>
<path d="M124.395 554.77L123.755 553.1C124.855 564.46 126.996 575.71 129.896 586.89C275.755 532.25 338.305 546.69 356.835 554.16L349.095 539.78C348.895 539.38 345.735 533.12 340.305 522.25C330.745 518.62 268.555 499.75 124.395 554.78V554.77Z" fill="#7EA451"/>
<path d="M532.495 832.94C535.275 838.18 538.045 843.42 540.785 848.63C548.495 831.39 575.485 783.72 656.305 725.94C749.835 659.07 763.225 615.65 763.345 615.22L765.095 615.72C762.535 611.14 759.985 606.56 757.445 601.98C753.095 612.63 731.465 655.68 647.845 715.48C551.195 784.59 533.885 829.02 532.505 832.95L532.495 832.94Z" fill="#7EA451"/>
<path d="M130.985 590.35L130.375 588.72C133.795 601.54 138.175 614.26 143.115 626.89C260.925 573.96 352.165 581.08 372.695 583.61C370.016 578.64 367.325 573.64 364.585 568.55L359.725 559.53C350.565 554.83 290.865 530.44 130.995 590.36L130.985 590.35Z" fill="#7EA451"/>
<path d="M497.475 768.31C505.505 782.8 513.355 797.19 521.035 811.47C527.255 798.28 552.085 756.27 635.965 696.29C729.555 629.37 744.995 582.62 745.145 582.16L746.885 582.7C734.665 560.01 723.255 537.26 713.935 514.27C709.285 525.27 681.095 586.37 607.785 642.3C534.525 698.19 502.445 758.38 497.475 768.31Z" fill="#7EA451"/>
<path d="M651.276 1075.04C656.916 1087.45 662.445 1099.73 667.855 1111.89C686.975 1049.07 845.726 926.24 852.716 920.87L853.815 922.3C853.725 918.33 853.635 914.35 853.545 910.39C853.085 890.79 852.575 871.12 851.225 851.55C843.695 862.48 804.515 917.26 744.855 964.73C698.375 1001.71 666.086 1039.81 651.276 1075.03V1075.04Z" fill="#7EA451"/>
<path d="M523.206 815.52C525.576 819.94 527.956 824.37 530.296 828.77C535.616 816.95 559.386 774.25 645.726 712.51C739.316 645.59 754.766 598.84 754.906 598.38L755.576 598.59C753.046 594.01 750.536 589.43 748.056 584.84C744.636 593.73 724.306 637.6 638.086 699.24C547.406 764.08 526.586 807.18 523.206 815.51V815.52Z" fill="#7EA451"/>
<path d="M736.745 1272.75C785.295 1250.19 834.305 1213.02 834.795 1212.64L835.865 1214.04C838.095 1204.09 840.065 1194.09 841.826 1184.04C832.675 1193.09 791.005 1232.63 732.695 1263C734.045 1266.26 735.405 1269.51 736.745 1272.74V1272.75Z" fill="#7EA451"/>
<path d="M180.287 711.901L180.974 711.085C178.134 704.345 180.11 697.53 177.08 690.769C175.73 699.96 190.475 687.716 180.277 697.23L177.529 699.025L180.744 703.447C180.744 703.707 178.354 713.236 183.504 717.257C186.324 719.447 194.578 719.573 183.607 720.281C182.937 718.631 187.372 720.775 186.682 719.125C312.232 677.214 409.047 676.961 423.157 677.691C422.487 676.451 421.827 675.211 421.157 673.961C400.577 673.101 301.307 671.48 180.277 711.911L180.287 711.901Z" fill="#C6DE88"/>
<path d="M670.245 1117.29C674.515 1126.91 678.735 1136.46 682.865 1145.92C706.765 1082.36 847.486 975.23 853.646 970.57L854.725 972C854.525 956.17 854.215 940.36 853.865 924.59C839.475 935.8 681.535 1059.95 670.245 1117.3V1117.29Z" fill="#7EA451"/>
<path d="M377.195 291.71C330.605 360.01 315.006 406.6 312.266 415.55C316.726 424.6 321.285 433.79 325.925 443.12C332.585 423.54 361.345 368.33 408.725 307.03C460.695 239.8 467.425 169.68 467.485 168.99L469.296 169.15C458.786 163.34 447.865 158.01 436.935 152.67C436.025 159.3 426.665 219.2 377.195 291.72V291.71Z" fill="#7EA451"/>
<path d="M685.026 1150.87C688.106 1157.92 691.136 1164.93 694.146 1171.89C748.336 1087.84 852.826 1019.89 853.885 1019.2L854.845 1020.69C854.985 1005.22 854.945 989.75 854.755 974.29C841.135 984.74 703.166 1091.78 685.026 1150.87Z" fill="#7EA451"/>
<path d="M418.536 623.17C425.356 636.02 432.306 649.03 439.376 662.17C584.606 528.08 641.296 426.31 641.855 425.29L643.526 426.21C632.296 413.74 622.146 400.28 612.946 386.15C609.546 397.29 583.636 464.13 418.546 623.17H418.536Z" fill="#7EA451"/>
<path d="M401.865 591.59C403.775 595.23 405.675 598.86 407.605 602.53C546.406 460.96 595.916 361.56 596.406 360.56L598.055 361.37C593.695 353.48 589.576 345.47 585.695 337.37C581.826 345.54 558.335 392.18 505.925 438.68C448.065 490.03 402.465 573.51 401.865 591.58V591.59Z" fill="#7EA451"/>
<path d="M755.266 1393.39C747.306 1373.57 739.686 1354.61 732.336 1336.41C723.436 1337.88 685.216 1345 624.946 1367.17C666.246 1386.41 711.756 1396.38 755.266 1393.38V1393.39Z" fill="#7EA451"/>
<path d="M219.275 812.19L218.705 810.51C349.535 765.84 453.035 771.69 474.475 773.55C469.495 764.14 464.385 754.52 459.125 744.65C443.835 743.81 327.985 738.99 204.995 775.81C209.595 788 214.265 800.16 219.275 812.19Z" fill="#7EA451"/>
<path d="M716.375 1224.01C724.585 1210.91 752.956 1184.19 778.706 1168.18C808.736 1149.5 849.285 1111.74 849.695 1111.36L850.885 1112.64C852.105 1098.03 853.016 1083.37 853.646 1068.67C841.026 1077.51 722.605 1161.16 706.065 1199.66C709.555 1207.85 712.985 1215.95 716.385 1224.01H716.375Z" fill="#7EA451"/>
<path d="M416.756 619.83C593.556 449.36 609.686 384.37 609.836 383.73L611.626 384.13C607.246 377.31 603.076 370.34 599.116 363.26C593.436 374.31 541.646 471.22 409.406 605.91C411.846 610.53 414.296 615.17 416.766 619.83H416.756Z" fill="#7EA451"/>
<path d="M622.586 1366.05L621.966 1364.38C681.976 1342.17 720.555 1334.72 730.935 1332.96C726.935 1323.05 722.996 1313.32 719.156 1303.86C709.216 1303.83 658.085 1305.56 579.255 1340.9C592.905 1350.41 607.465 1358.84 622.595 1366.05H622.586Z" fill="#7EA451"/>
<path d="M341.446 297.35C301.286 361.5 296.116 382.22 296.066 382.42H296.036C300.576 391.73 305.216 401.21 309.966 410.86C314.916 396.1 331.866 351.72 374.196 289.66C425.866 213.92 433.346 152.23 433.416 151.61L435.226 151.81C424.596 146.61 413.976 141.37 403.756 135.62C402.006 143.28 380.576 234.84 341.456 297.35H341.446Z" fill="#7EA451"/>
<path d="M445.395 424.79C382.235 499.38 371.775 523.98 370.855 531.89C375.045 540.04 379.285 548.27 383.595 556.57C385.725 539.62 398.785 497.78 467.945 427.72C558.115 336.38 563.345 291.1 563.385 290.65L565.185 290.82C560.605 280.12 555.915 269.43 550.855 259C547.465 270.26 527.215 328.15 445.385 424.78L445.395 424.79Z" fill="#7EA451"/>
<path d="M254.455 866.27L253.865 864.56C337.425 835.79 401.465 826.81 440.475 824.34C472.695 822.3 493.245 824.18 501.655 825.27C496.935 816.22 492.105 807 487.135 797.56C474.456 796.16 386.095 788.95 232.375 837.33C239.355 848.35 246.965 857.69 254.445 866.27H254.455Z" fill="#7EA451"/>
<path d="M470.545 430.28C390.915 510.94 386.795 554.04 386.915 562.93C390.925 570.65 394.965 578.41 399.075 586.25C405.805 558.86 451.975 481.71 503.525 435.96C560.285 385.59 582.795 335.03 583.015 334.53L584.685 335.26C578.355 321.91 572.505 307.92 566.525 293.9C564.075 305.3 549.895 349.91 470.555 430.28H470.545Z" fill="#7EA451"/>
<path d="M231.356 835.74L230.816 834.01C377.746 787.7 465.566 791.94 485.126 793.71C482.306 788.35 479.426 782.9 476.516 777.4C462.226 775.97 356.026 767.51 220.046 813.91C223.486 821.92 227.296 829.16 231.356 835.75V835.74Z" fill="#7EA451"/>
<path d="M577.506 1339.65L576.776 1338.02C653.356 1303.52 704.406 1300.4 717.686 1300.23C716.646 1297.66 715.606 1295.11 714.576 1292.57C704.966 1292.29 655.376 1293.03 565.686 1330.86C569.536 1333.88 573.496 1336.8 577.516 1339.65H577.506Z" fill="#7EA451"/>
<path d="M620.385 1008.41C625.005 1018.19 629.555 1027.88 634.035 1037.52C637.215 1024.03 651.555 994.43 712.095 948.05C795.235 884.36 845.646 815.59 846.146 814.9L847.586 815.94C845.976 804.6 843.915 793.33 841.165 782.18C841.065 781.79 840.955 781.41 840.855 781.02C835.045 790.81 802.165 842.29 722.355 899.66C632.195 964.46 622.725 996.48 620.385 1008.41Z" fill="#7EA451"/>
<path d="M179.325 0.410153C177.955 0.250153 176.555 0.110153 175.155 0.0401529C171.985 -0.119847 168.835 0.110153 166.095 1.59015C164.955 2.21015 164.025 3.02015 163.185 3.92015C161.975 5.20015 161.035 6.72015 160.305 8.39015C158.705 12.0602 158.045 16.4202 157.645 20.4502C157.415 22.7702 157.185 25.1702 156.965 27.6102C156.855 28.8302 156.745 30.0602 156.635 31.3002C155.955 38.9402 155.295 46.9402 154.625 54.7702C154.515 56.0302 154.405 57.2802 154.305 58.5302C153.895 63.2201 153.485 67.7901 153.055 72.1301L154.765 71.9501L155.455 73.6502C155.735 74.3302 162.385 90.7002 175.145 120.3C203.035 72.0002 213.515 8.79015 213.615 8.14015L217.205 8.72015C217.095 9.38015 206.175 75.2901 176.935 124.45C178.765 128.69 180.715 133.17 182.785 137.91C217.725 81.8502 235.575 15.8302 235.755 15.1602L237.515 15.6302C228.765 10.3702 219.125 7.13015 209.145 4.91015C200.755 3.04015 192.115 1.91015 183.555 0.910153C182.145 0.750153 180.735 0.580153 179.335 0.420153L179.325 0.410153Z" fill="#7EA451"/>
<path d="M32.1255 104.11C26.5655 109.08 21.4155 114.51 16.7755 120.35C16.0055 121.31 15.2655 122.3 14.5255 123.28C13.8555 124.17 13.1755 125.04 12.5255 125.95C83.3255 172.6 166.406 189.36 186.436 192.87C183.576 186.16 180.766 179.5 178.006 172.9C169.966 171.19 105.476 156.48 28.0655 109.74L29.9455 106.62C101.556 149.86 161.896 165.48 176.296 168.79C172.006 158.49 167.866 148.35 163.876 138.41C159.216 137.55 141.306 133.46 126.126 119.41L127.366 118.07C121.266 116.47 115.356 114.2 109.676 111.46C108.446 110.87 107.206 110.28 106.006 109.63C99.1255 105.96 92.6955 101.48 86.8355 96.3303C85.9855 95.5803 85.1455 94.8403 84.3255 94.0603C82.1655 92.0303 80.0655 89.9403 78.0955 87.7203C74.0955 83.2203 67.6955 81.6003 62.2255 84.0603C62.1555 84.0903 62.0855 84.1003 62.0155 84.1403C54.9655 87.4603 48.2755 91.4803 41.9855 96.0703C39.5555 97.8403 37.1755 99.6803 34.8755 101.62C33.9355 102.41 33.0455 103.26 32.1355 104.08L32.1255 104.11Z" fill="#7EA451"/>
<path d="M181.786 715.46C182.476 717.11 183.166 718.77 183.836 720.42C184.576 722.23 185.306 724.04 186.016 725.86C192.306 741.79 198.226 757.86 204.256 773.88L203.806 772.38C322.736 736.75 435.026 739.88 457.126 740.92C450.836 729.11 444.326 716.92 437.596 704.36C421.866 703.58 301.056 699.22 191.566 740.26L190.296 736.85C296.396 697.08 412.966 699.68 435.596 700.63C431.606 693.19 427.526 685.57 423.376 677.84C409.266 677.1 307.326 673.55 181.776 715.47L181.786 715.46Z" fill="#7EA451"/>
<path d="M144.525 630.24L143.755 628.54C152.395 650.4 162.605 672 172.225 693.47C175.255 700.23 178.215 706.98 181.055 713.71L180.495 712.05C301.525 671.62 400.796 673.24 421.375 674.1C413.365 659.18 405.035 643.69 396.365 627.59C384.285 626.24 302.615 619.77 161.835 670.32L160.605 666.9C294.445 618.85 375.445 622.07 394.285 623.74C387.975 612.01 381.495 599.98 374.805 587.57C361.695 585.67 267.865 574.81 144.515 630.25L144.525 630.24Z" fill="#7EA451"/>
<path d="M318.505 964.24L319.266 965.91C319.326 965.88 319.375 965.86 319.425 965.84C474.595 895.29 536.405 909.05 546.035 912.01C545.295 910.53 544.555 909.05 543.815 907.57C526.525 903.35 463.135 896.48 317.755 962.61L318.505 964.25V964.24Z" fill="#C6DE88"/>
<path d="M343.485 1005.33L344.135 1007.03C344.255 1006.98 344.375 1006.94 344.495 1006.89C519.495 939.72 559.885 950.51 566.565 953.64C565.815 952.1 565.055 950.55 564.305 949.01C549.195 945.02 498.855 943.72 342.835 1003.63L343.485 1005.33Z" fill="#C6DE88"/>
<path d="M356.765 1025.43L357.425 1027.11C357.555 1027.06 357.685 1027.01 357.815 1026.96C516.985 964.87 568.355 973.03 576.995 975.27C576.325 973.86 575.645 972.46 574.975 971.05C559.695 968.16 504.685 965.72 356.105 1023.72L356.775 1025.43H356.765Z" fill="#C6DE88"/>
<path d="M381.375 1057.59L381.045 1059.38L380.715 1061.17C380.815 1061.19 381.315 1061.27 382.435 1061.26C388.585 1061.21 413.665 1058.54 497.115 1029.21C568.985 1003.95 588.385 1007.75 593.395 1010.56C593.535 1010.64 593.615 1010.71 593.735 1010.79C592.985 1009.17 592.225 1007.54 591.465 1005.93C580.435 1002.92 554.705 1005.11 495.895 1025.78C399.475 1059.67 382.035 1057.69 381.375 1057.6V1057.59Z" fill="#C6DE88"/>
<path d="M403.276 1088.55L403.656 1090.32L404.036 1092.11C404.036 1092.11 404.346 1092.04 404.796 1091.94C412.106 1090.32 472.256 1076.63 528.386 1052.31C586.476 1027.15 605.696 1037.55 605.886 1037.66L606.016 1037.45C605.356 1036 604.695 1034.56 604.035 1033.12C595.925 1030.9 573.576 1028.77 526.936 1048.98C467.696 1074.64 403.916 1088.42 403.276 1088.55Z" fill="#C6DE88"/>
<path d="M470.596 1107.46C448.656 1115.53 432.796 1121.36 425.686 1122.34L425.936 1124.13L426.186 1125.94C426.416 1125.91 426.716 1125.83 426.966 1125.79C434.686 1124.53 449.576 1119.07 471.856 1110.87C490.666 1103.95 514.066 1095.34 541.126 1086.4C590.996 1069.91 616.046 1072.27 622.156 1073.26C621.566 1071.94 620.986 1070.64 620.396 1069.33C611.126 1068.23 586.106 1067.7 539.986 1082.94C512.876 1091.9 489.436 1100.52 470.606 1107.45L470.596 1107.46Z" fill="#C6DE88"/>
<path d="M466.895 1125.04C454.135 1130.01 444.035 1133.95 433.815 1137.21C433.755 1137.23 433.695 1137.25 433.635 1137.27L434.735 1140.74C435.055 1140.64 435.375 1140.53 435.695 1140.43C445.755 1137.18 455.715 1133.31 468.215 1128.44C486.495 1121.32 509.256 1112.45 545.076 1100.51C599.186 1082.48 626.306 1090.55 630.406 1092C629.756 1090.53 629.116 1089.05 628.466 1087.59C618.886 1085.06 591.885 1081.08 543.925 1097.06C508.015 1109.03 485.215 1117.91 466.895 1125.05V1125.04Z" fill="#C6DE88"/>
<path d="M466.675 1149.01C455.415 1153.42 449.215 1155.84 445.505 1156.18L445.665 1157.99L445.826 1159.8C446.066 1159.78 446.345 1159.73 446.605 1159.69C450.795 1159.12 456.745 1156.8 468.005 1152.4C481.925 1146.95 502.965 1138.72 537.785 1126.99C594.185 1107.99 631.776 1112.1 639.706 1113.3C639.135 1111.99 638.565 1110.67 638.005 1109.37C626.355 1107.86 590.205 1105.49 536.615 1123.55C501.725 1135.3 480.635 1143.55 466.675 1149.01Z" fill="#C6DE88"/>
<path d="M454.896 1180.99L456.376 1184.32C457.376 1183.88 458.326 1183.48 459.316 1183.04C580.226 1130.04 638.516 1133.07 648.706 1134.18C648.156 1132.89 647.606 1131.61 647.056 1130.33C632.076 1129.01 574.196 1128.66 457.576 1179.83C456.676 1180.23 455.806 1180.59 454.896 1180.99Z" fill="#C6DE88"/>
<path d="M471.326 1205.08L472.016 1206.78C472.086 1206.75 472.145 1206.73 472.205 1206.7C582.515 1161.38 651.605 1166.43 662.945 1167.68C662.406 1166.4 661.876 1165.14 661.336 1163.87C644.876 1162.41 576.405 1159.92 470.635 1203.41L471.326 1205.08Z" fill="#C6DE88"/>
<path d="M487.645 1234.22L488.315 1235.93C488.405 1235.9 488.486 1235.87 488.576 1235.83C607.406 1189.4 665.385 1195.72 675.415 1197.36C674.855 1196.03 674.315 1194.72 673.755 1193.4C658.595 1191.27 601.095 1187.91 486.985 1232.54L487.645 1234.22Z" fill="#C6DE88"/>
<path d="M513.985 1277.1L514.595 1278.82C514.755 1278.76 514.905 1278.71 515.065 1278.66C641.185 1234.1 684.635 1237.78 692.725 1239.15C692.175 1237.82 691.645 1236.52 691.095 1235.2C678.125 1233.6 632.405 1233.3 513.385 1275.39L513.985 1277.1Z" fill="#C6DE88"/>
<path d="M541.115 1309.16L541.855 1310.86C542.085 1310.76 542.305 1310.67 542.545 1310.57C638.075 1268.79 695.006 1269.52 705.406 1270.09C704.896 1268.84 704.396 1267.63 703.896 1266.39C689.506 1265.9 632.606 1267.09 540.406 1307.53L541.125 1309.17L541.115 1309.16Z" fill="#C6DE88"/>
<path d="M564.045 1329.56L564.755 1331.25C565.065 1331.12 565.365 1331 565.675 1330.87C655.365 1293.04 704.955 1292.3 714.565 1292.58C714.065 1291.35 713.555 1290.1 713.065 1288.88C699.935 1288.65 650.965 1290.81 563.345 1327.9L564.045 1329.56Z" fill="#C6DE88"/>
<path d="M577.505 1339.65L578.266 1341.34C578.596 1341.19 578.925 1341.05 579.255 1340.9C658.085 1305.56 709.216 1303.82 719.156 1303.86C718.656 1302.64 718.175 1301.45 717.685 1300.23C704.405 1300.4 653.346 1303.52 576.776 1338.02L577.505 1339.65Z" fill="#C6DE88"/>
<path d="M622.586 1366.05L623.236 1367.79C623.826 1367.57 624.366 1367.39 624.946 1367.17C685.216 1345 723.436 1337.87 732.336 1336.41C731.866 1335.25 731.406 1334.12 730.936 1332.96C720.556 1334.72 681.976 1342.17 621.966 1364.38L622.586 1366.05Z" fill="#C6DE88"/>
<path d="M285.205 904.46L285.665 906.16C285.815 906.12 285.965 906.08 286.115 906.04C464.795 857.72 516.565 868.05 525.075 870.59C524.325 869.13 523.595 867.68 522.835 866.21C506.965 862.72 449.845 857.94 284.705 902.65L285.195 904.45L285.205 904.46Z" fill="#C6DE88"/>
<path d="M275.865 891.05L276.385 892.78C276.625 892.71 276.835 892.65 277.075 892.58C444.985 842.15 506.515 851.43 516.335 853.55C515.625 852.17 514.905 850.77 514.185 849.39C497.495 846.47 433.925 841.6 275.345 889.31L275.875 891.06L275.865 891.05Z" fill="#C6DE88"/>
<path d="M253.875 864.56L254.465 866.27L255.055 868C255.295 867.92 255.525 867.84 255.765 867.76C402.955 817.21 491.145 827.4 503.735 829.25C503.045 827.93 502.355 826.6 501.665 825.27C493.245 824.18 472.695 822.3 440.485 824.34C401.475 826.8 337.435 835.78 253.875 864.56Z" fill="#C6DE88"/>
<path d="M231.355 835.74L231.905 837.48C232.065 837.43 232.225 837.38 232.385 837.33C386.115 788.95 474.465 796.16 487.145 797.56C486.465 796.28 485.795 795 485.115 793.71C465.555 791.94 377.735 787.7 230.805 834.01L231.345 835.74H231.355Z" fill="#C6DE88"/>
<path d="M219.275 812.19L219.875 813.95C219.925 813.93 219.985 813.91 220.035 813.9C356.015 767.51 462.215 775.96 476.505 777.39C475.825 776.11 475.155 774.83 474.475 773.55C453.035 771.69 349.535 765.84 218.705 810.51L219.275 812.19Z" fill="#C6DE88"/>
<path d="M204.265 773.87L204.865 775.85C204.865 775.85 204.955 775.82 205.005 775.81C327.985 738.99 443.845 743.81 459.135 744.65C458.475 743.4 457.805 742.16 457.145 740.91C435.035 739.87 322.745 736.74 203.825 772.37L204.275 773.87H204.265Z" fill="#C6DE88"/>
<path d="M191.575 740.25C301.055 699.21 421.875 703.57 437.605 704.35C436.935 703.1 436.285 701.88 435.605 700.62C412.975 699.68 296.395 697.08 190.305 736.84L191.575 740.25Z" fill="#C6DE88"/>
<path d="M160.625 666.89L161.855 670.31C302.635 619.77 384.296 626.23 396.385 627.58C395.695 626.29 395.005 625.02 394.305 623.72C375.465 622.06 294.475 618.83 160.625 666.88V666.89Z" fill="#C6DE88"/>
<path d="M143.116 626.88C143.116 626.88 143.066 626.9 143.036 626.91L143.766 628.53L144.536 630.23C267.886 574.78 361.716 585.65 374.826 587.55C374.126 586.24 373.406 584.92 372.696 583.6C352.166 581.07 260.926 573.95 143.116 626.88Z" fill="#C6DE88"/>
<path d="M129.885 586.88C129.825 586.9 129.775 586.92 129.715 586.94L130.375 588.71L130.985 590.34C290.855 530.42 350.555 554.81 359.715 559.51L356.825 554.14C338.295 546.67 275.745 532.23 129.885 586.87V586.88Z" fill="#C6DE88"/>
<path d="M123.575 551.19C123.405 551.25 123.255 551.31 123.085 551.37L123.745 553.09L124.385 554.76C268.545 499.74 330.735 518.61 340.295 522.23C339.545 520.74 338.775 519.18 337.945 517.51C320.285 511.94 257.455 500.16 123.575 551.18V551.19Z" fill="#C6DE88"/>
<path d="M230.776 463.55L231.156 465.33L231.536 467.11C264.766 460.01 303.376 463.18 311.576 463.97C310.956 462.7 310.346 461.44 309.716 460.15C298.336 459.17 263.926 457 233.186 463.09C232.386 463.25 231.576 463.38 230.786 463.55H230.776Z" fill="#C6DE88"/>
<path d="M78.7955 417.21C79.2555 418.51 79.7255 419.82 80.1955 421.16C185.516 439.94 274.446 421.31 289.256 417.89C288.726 416.78 288.186 415.65 287.646 414.53C270.836 418.35 182.626 436.19 78.7955 417.22V417.21Z" fill="#C6DE88"/>
<path d="M68.4855 388.28C68.9055 389.49 69.3855 390.82 69.8555 392.16C154.925 404.97 262.705 392.45 276.295 390.76C275.745 389.61 275.195 388.46 274.645 387.3C256.785 389.46 151.145 401.18 68.4855 388.28Z" fill="#C6DE88"/>
<path d="M58.1155 356.76C58.5055 358.06 58.8955 359.34 59.3155 360.67C149.425 376.35 243.905 354.76 257.715 351.38C257.195 350.26 256.665 349.14 256.145 348.02C240.435 351.81 146.815 372.72 58.1255 356.76H58.1155Z" fill="#C6DE88"/>
<path d="M43.5455 298.93C43.8255 300.27 44.1055 301.62 44.3855 302.97C138.246 329.6 230.396 317.66 241.306 316.1C240.776 314.95 240.246 313.8 239.716 312.65C224.926 314.68 134.746 325.32 43.5455 298.94V298.93Z" fill="#C6DE88"/>
<path d="M36.0055 263.1C36.3255 264.52 36.6455 265.94 36.9455 267.32C136.035 303.37 220.345 296.56 231.805 295.4C231.275 294.23 230.745 293.07 230.205 291.9C215.185 293.29 132.485 298.76 35.9955 263.1H36.0055Z" fill="#C6DE88"/>
<path d="M23.6155 215.45C24.0755 217 24.5055 218.51 24.9355 220.01C110.885 256.91 204.255 259.02 215.415 259.13C214.865 257.91 214.325 256.69 213.785 255.47C197.045 255.16 106.355 251.78 23.6155 215.45Z" fill="#C6DE88"/>
<path d="M12.5255 125.95C12.5255 125.95 12.5255 125.95 12.5155 125.95L11.7155 127.16L10.5055 128.99C85.0255 178.1 173.015 194.36 188.135 196.86C187.565 195.53 187.005 194.21 186.435 192.88C166.395 189.37 83.3155 172.61 12.5255 125.96V125.95Z" fill="#C6DE88"/>
<path d="M29.9554 106.63L28.0754 109.75C105.495 156.49 169.975 171.2 178.015 172.91C177.445 171.54 176.865 170.17 176.305 168.81C161.915 165.5 101.575 149.88 29.9554 106.64V106.63Z" fill="#C6DE88"/>
<path d="M128.605 116.76L127.365 118.09L126.125 119.43C141.295 133.48 159.215 137.57 163.875 138.43C163.325 137.07 162.785 135.71 162.245 134.35C155.815 132.83 141.095 128.32 128.605 116.76Z" fill="#C6DE88"/>
<path d="M176.926 124.45C206.166 75.2901 217.086 9.39014 217.196 8.72014L213.605 8.14014C213.495 8.79014 203.015 71.9901 175.135 120.3C175.715 121.65 176.326 123.05 176.926 124.45Z" fill="#C6DE88"/>
<path d="M182.776 137.91C183.356 139.24 183.936 140.58 184.536 141.95C218.926 87.6801 237.276 23.2802 239.096 16.6902C239.186 16.3602 239.246 16.1302 239.256 16.1002L237.506 15.6302L235.746 15.1602C235.566 15.8302 217.716 81.8502 182.776 137.91Z" fill="#C6DE88"/>
<path d="M199.555 175.94C200.145 177.26 200.725 178.56 201.315 179.9C249.115 107.37 264.815 47.2804 266.755 39.3104C266.885 38.7604 266.955 38.4504 266.965 38.4104L265.195 38.0204L263.425 37.6304C263.285 38.2504 249.245 99.8704 199.555 175.96V175.94Z" fill="#C6DE88"/>
<path d="M223.565 229.07C224.185 230.42 224.815 231.8 225.445 233.16C265.945 161.81 293.645 58.0201 294.425 55.1001C294.425 55.0701 294.455 54.9901 294.455 54.9801L292.705 54.5201L290.935 54.0601C290.665 55.1001 263.505 157.55 223.565 229.07Z" fill="#C6DE88"/>
<path d="M230.575 244.35C231.155 245.6 231.725 246.85 232.305 248.11C284.385 179.7 305.845 64.3102 306.785 59.0902C306.805 59.0002 306.825 58.8502 306.835 58.8302L305.035 58.5102L303.255 58.2002C303.045 59.3802 282.205 175.21 230.565 244.35H230.575Z" fill="#C6DE88"/>
<path d="M245.085 275.63C245.685 276.93 246.295 278.23 246.905 279.53C302.695 193.32 328.325 82.66 330.725 71.88C330.835 71.37 330.915 71.01 330.925 70.96L328.975 70.55L327.365 70.21C327.115 71.37 302.225 186.22 245.075 275.64L245.085 275.63Z" fill="#C6DE88"/>
<path d="M253.485 293.54C254.075 294.79 254.665 296.04 255.255 297.3C322.625 206.03 340.365 96.8699 342.375 83.0999C342.505 82.2199 342.575 81.7099 342.585 81.6299L340.765 81.3999L338.975 81.1699C338.825 82.3399 323.575 197.53 253.495 293.52L253.485 293.54Z" fill="#C6DE88"/>
<path d="M266.916 321.93C267.506 323.18 268.116 324.45 268.716 325.71C335.996 230.67 361.026 118.7 363.596 106.57C363.736 105.92 363.826 105.48 363.836 105.42L362.046 105.07L360.266 104.72C360.036 105.9 336.426 222.8 266.916 321.93Z" fill="#C6DE88"/>
<path d="M338.355 295.42C306.905 345.67 296.805 369.24 293.755 377.73C294.515 379.29 295.275 380.85 296.035 382.42H296.065C296.115 382.23 301.285 361.5 341.445 297.35C380.576 234.84 402.005 143.28 403.745 135.62C403.815 135.32 403.865 135.11 403.865 135.07L402.095 134.68L400.305 134.29C400.095 135.25 378.675 230.99 338.345 295.42H338.355Z" fill="#C6DE88"/>
<path d="M374.195 289.66C331.865 351.71 314.915 396.1 309.965 410.86C310.735 412.43 311.495 413.98 312.275 415.55C315.015 406.6 330.615 360.01 377.205 291.71C426.675 219.2 436.035 159.29 436.945 152.66C436.995 152.29 437.025 152.05 437.035 152.02L435.225 151.82L433.415 151.62C433.345 152.23 425.865 213.93 374.195 289.67V289.66Z" fill="#C6DE88"/>
<path d="M408.726 307.03C361.346 368.33 332.586 423.53 325.926 443.12C326.706 444.69 327.506 446.28 328.296 447.86C330.986 435.25 359.786 376.3 411.606 309.25C461.276 244.99 470.126 178.08 471.026 170.11C471.076 169.63 471.106 169.34 471.116 169.3L469.306 169.14L467.496 168.98C467.436 169.68 460.716 239.79 408.736 307.02L408.726 307.03Z" fill="#C6DE88"/>
<path d="M447.365 318.4C397.415 377.45 354.615 448.75 343.375 477.91C344.125 479.39 344.875 480.89 345.625 482.38C354.365 456.52 399.215 380.95 450.135 320.76C496.576 265.87 504.555 203.75 505.546 193.96C505.626 193.14 505.665 192.64 505.675 192.59L503.845 192.46L502.046 192.34C501.995 193.01 496.875 259.88 447.365 318.41V318.4Z" fill="#C6DE88"/>
<path d="M444.136 369.39C390.786 429.38 362.356 485.49 355.036 500.93C355.736 502.31 356.426 503.67 357.126 505.05C361.716 494.99 390.056 435.67 446.856 371.8C504.736 306.71 530.706 239.11 534.396 228.95C534.686 228.15 534.856 227.66 534.876 227.6L533.126 227.01L531.426 226.43C531.176 227.15 506.116 299.68 444.126 369.38L444.136 369.39Z" fill="#C6DE88"/>
<path d="M442.625 422.44C399.545 473.32 373.905 509.53 368.355 527.01C369.195 528.64 370.025 530.26 370.865 531.9C371.785 523.99 382.245 499.39 445.405 424.8C527.235 328.17 547.485 270.28 550.875 259.02C551.265 257.74 551.445 257.03 551.455 256.97L549.655 256.55L547.915 256.14C547.775 256.72 533.095 315.63 442.635 422.45L442.625 422.44Z" fill="#C6DE88"/>
<path d="M467.955 427.73C398.795 497.79 385.735 539.62 383.605 556.58C384.705 558.7 385.805 560.82 386.915 562.94C386.805 554.05 390.925 510.95 470.545 430.29C549.895 349.92 564.065 305.31 566.515 293.91C566.875 292.22 566.985 291.25 567.015 291.01L565.205 290.84L563.405 290.67C563.365 291.12 558.135 336.4 467.965 427.74L467.955 427.73Z" fill="#C6DE88"/>
<path d="M503.515 435.97C451.965 481.72 405.795 558.86 399.065 586.26C399.995 588.03 400.935 589.82 401.865 591.59C402.475 573.52 448.065 490.04 505.925 438.69C558.325 392.19 581.825 345.55 585.695 337.38C586.065 336.6 586.315 336.04 586.335 336L584.665 335.27L582.995 334.54C582.775 335.04 560.265 385.6 503.505 435.97H503.515Z" fill="#C6DE88"/>
<path d="M407.615 602.53C408.205 603.65 408.805 604.79 409.405 605.91C541.645 471.22 593.435 374.31 599.115 363.26C599.445 362.62 599.645 362.22 599.675 362.16L598.065 361.37L596.415 360.56C595.925 361.55 546.425 460.96 407.615 602.53Z" fill="#C6DE88"/>
<path d="M416.755 619.83C417.345 620.94 417.945 622.06 418.535 623.17C583.625 464.13 609.535 397.29 612.935 386.15C613.205 385.26 613.335 384.72 613.385 384.52L611.625 384.13L609.836 383.73C609.696 384.37 593.555 449.36 416.755 619.83Z" fill="#C6DE88"/>
<path d="M439.375 662.17C439.965 663.27 440.565 664.38 441.155 665.48C582.215 535.39 640.315 435.38 644.745 427.56C644.905 427.27 645.015 427.08 645.035 427.04L643.516 426.21L641.845 425.29C641.285 426.31 584.595 528.08 439.365 662.17H439.375Z" fill="#C6DE88"/>
<path d="M453.085 687.57C453.685 688.67 454.285 689.77 454.875 690.87C631.565 527.56 664.495 457.64 667.735 450.05C667.865 449.75 667.945 449.54 667.995 449.43L666.295 448.76L664.605 448.1C664.335 448.79 635.215 519.12 453.085 687.57Z" fill="#C6DE88"/>
<path d="M569.695 640.5L567.235 637.82C563.895 640.88 490.475 708.36 477.205 731.67C477.905 732.93 478.595 734.2 479.295 735.47C485.915 719.53 546.255 662 569.695 640.5Z" fill="#C6DE88"/>
<path d="M605.586 639.4C536.026 692.47 503.185 749.55 495.365 764.48C496.075 765.76 496.775 767.03 497.485 768.31C502.455 758.37 534.535 698.19 607.795 642.3C681.105 586.37 709.296 525.27 713.945 514.27C714.406 513.19 714.645 512.57 714.665 512.51L712.975 511.87L711.266 511.23C711.016 511.9 685.215 578.65 605.595 639.4H605.586Z" fill="#C6DE88"/>
<path d="M635.965 696.29C552.075 756.27 527.255 798.29 521.035 811.47C521.765 812.82 522.485 814.17 523.205 815.52C526.575 807.18 547.405 764.08 638.085 699.25C724.305 637.6 744.635 593.74 748.055 584.85C748.395 583.97 748.575 583.42 748.625 583.24L746.895 582.7L745.155 582.16C745.005 582.62 729.565 629.37 635.975 696.29H635.965Z" fill="#C6DE88"/>
<path d="M645.715 712.52C559.375 774.25 535.605 816.96 530.285 828.78C531.025 830.17 531.755 831.56 532.495 832.95C533.875 829.02 551.175 784.59 647.835 715.48C731.465 655.69 753.085 612.63 757.435 601.98C758.015 600.56 758.295 599.69 758.375 599.46L755.565 598.59L754.895 598.38C754.755 598.84 739.305 645.59 645.715 712.51V712.52Z" fill="#C6DE88"/>
<path d="M656.305 725.94C575.485 783.73 548.495 831.39 540.785 848.63C541.515 850.02 542.225 851.4 542.955 852.79C548.545 839 573.175 789.85 658.425 728.89C744.185 667.57 763.085 626.47 766.295 617.85C766.635 616.94 766.805 616.39 766.845 616.21L765.095 615.71L763.345 615.21C763.215 615.64 749.825 659.06 656.305 725.93V725.94Z" fill="#C6DE88"/>
<path d="M673.626 752.77C600.926 804.61 560.846 842.74 551.436 869.05C552.246 870.62 553.046 872.18 553.856 873.75C560.236 848.58 601.156 808.91 675.736 755.73C749.796 702.92 776.206 651.39 780.236 642.82C780.596 642.05 780.796 641.59 780.816 641.55L779.136 640.85L777.456 640.15C777.226 640.7 753.406 695.89 673.616 752.78L673.626 752.77Z" fill="#C6DE88"/>
<path d="M674.486 793.21C596.756 849.94 575.916 881.63 568.666 902.76C569.446 904.3 570.236 905.84 571.006 907.38C576.986 886.85 595.206 855.57 676.616 796.15C756.046 738.18 794.476 685.55 799.456 678.47C799.806 677.98 799.996 677.69 800.016 677.66L798.506 676.65L796.996 675.64C796.626 676.19 758.926 731.58 674.466 793.22L674.486 793.21Z" fill="#C6DE88"/>
<path d="M688.756 836.26C607.596 891.54 588.506 921.34 584.966 935.28C585.956 937.28 586.936 939.27 587.926 941.27C587.876 940.48 587.896 939.55 588.046 938.42C589.696 926.41 605.236 897.55 690.806 839.27C797.356 766.7 817.046 731.21 820.526 722.43C821.026 721.16 821.196 720.44 821.226 720.26L819.436 719.89L817.666 719.53C817.596 719.87 808.796 754.52 688.766 836.27L688.756 836.26Z" fill="#C6DE88"/>
<path d="M694.086 849.45C616.576 902.24 595.966 933.63 592.706 950.95C593.806 953.2 594.886 955.42 595.976 957.66C595.816 956.28 595.796 954.56 596.136 952.41C598.256 939.07 614.076 908.34 696.126 852.45C803.486 779.33 822.656 743.86 825.916 735.42C826.356 734.27 826.516 733.6 826.546 733.43L824.976 733.11L822.976 732.7C822.906 733.04 814.106 767.69 694.066 849.44L694.086 849.45Z" fill="#C6DE88"/>
<path d="M711.865 873.93C651.245 917.5 616.215 953.64 607.545 981.52C608.365 983.22 609.185 984.92 609.995 986.61C615.985 959.12 650.915 922.23 713.995 876.88C794.595 818.95 828.435 766.59 833.965 757.46C834.495 756.59 834.775 756.09 834.805 756.04L833.215 755.15L831.625 754.27C831.315 754.83 799.435 810.98 711.865 873.92V873.93Z" fill="#C6DE88"/>
<path d="M720.225 896.71C638.415 955.5 622.136 988.15 617.896 1003.17C618.726 1004.91 619.565 1006.67 620.385 1008.41C622.725 996.49 632.195 964.46 722.355 899.66C802.165 842.3 835.045 790.81 840.855 781.02C841.475 779.98 841.796 779.4 841.826 779.34L840.185 778.46L838.615 777.62C838.315 778.17 807.775 833.78 720.225 896.7V896.71Z" fill="#C6DE88"/>
<path d="M712.086 948.05C651.546 994.43 637.206 1024.04 634.026 1037.52C634.976 1039.55 635.915 1041.59 636.855 1043.61C637.145 1036.35 642.995 1005.56 714.305 950.93C791.015 892.16 839.995 829.1 847.925 818.59C848.635 817.65 849.045 817.09 849.095 817.03L847.586 815.94L846.146 814.9C845.646 815.59 795.235 884.36 712.095 948.05H712.086Z" fill="#C6DE88"/>
<path d="M742.586 961.89C696.966 998.19 664.835 1035.66 649.245 1070.58C649.925 1072.07 650.586 1073.55 651.266 1075.04C666.076 1039.82 698.365 1001.72 744.845 964.74C804.505 917.27 843.686 862.48 851.216 851.56C852.056 850.35 852.515 849.65 852.555 849.59L851.016 848.58L849.516 847.59C849.116 848.2 808.386 909.54 742.586 961.9V961.89Z" fill="#C6DE88"/>
<path d="M667.855 1111.89C668.655 1113.69 669.455 1115.48 670.245 1117.28C681.535 1059.94 839.465 935.78 853.865 924.57C854.475 924.09 854.855 923.8 854.925 923.75L853.815 922.3L852.716 920.87C845.736 926.24 686.985 1049.07 667.855 1111.89Z" fill="#C6DE88"/>
<path d="M682.865 1145.92C683.595 1147.58 684.306 1149.22 685.026 1150.88C703.166 1091.79 841.135 984.75 854.755 974.3C855.395 973.81 855.766 973.52 855.836 973.47L854.725 972L853.646 970.57C847.496 975.23 706.765 1082.36 682.865 1145.92Z" fill="#C6DE88"/>
<path d="M694.146 1171.89C694.726 1173.23 695.305 1174.57 695.875 1175.91C746.505 1095.89 844.085 1030.04 854.826 1022.94C855.406 1022.56 855.795 1022.3 855.845 1022.27L854.836 1020.7L853.875 1019.21C852.805 1019.9 748.325 1087.84 694.135 1171.9L694.146 1171.89Z" fill="#C6DE88"/>
<path d="M704.146 1195.19C704.776 1196.68 705.425 1198.18 706.055 1199.66C722.595 1161.16 841.016 1077.5 853.635 1068.67C854.275 1068.22 854.735 1067.9 854.795 1067.86L853.716 1066.31L852.725 1064.87C847.405 1068.56 726.555 1152.59 704.135 1195.19H704.146Z" fill="#C6DE88"/>
<path d="M778.695 1168.18C752.955 1184.19 724.575 1210.91 716.365 1224.01C716.965 1225.44 717.565 1226.86 718.165 1228.28C722.245 1219.19 750.915 1189.74 780.615 1171.26C807.665 1154.43 843.035 1122.4 850.665 1115.4C851.585 1114.55 852.125 1114.05 852.175 1114.01L850.885 1112.63L849.695 1111.35C849.285 1111.73 808.736 1149.49 778.706 1168.17L778.695 1168.18Z" fill="#C6DE88"/>
<path d="M731.295 1259.64C731.765 1260.77 732.235 1261.89 732.695 1263.01C791.005 1232.64 832.675 1193.09 841.826 1184.05C843.016 1182.87 843.685 1182.18 843.735 1182.13L842.355 1180.81L841.105 1179.61C840.665 1180.07 796.495 1225.61 731.285 1259.64H731.295Z" fill="#C6DE88"/>
<path d="M736.745 1272.75C737.215 1273.87 737.675 1274.99 738.135 1276.11C739.305 1275.57 740.476 1275.03 741.646 1274.47C784.126 1254.14 826.135 1223.61 835.185 1216.89C836.305 1216.06 836.945 1215.57 836.995 1215.53L835.865 1214.04L834.795 1212.64C834.305 1213.02 785.295 1250.19 736.745 1272.75Z" fill="#C6DE88"/>
<path d="M10.5155 128.98C10.5155 128.98 10.5155 128.98 10.5255 128.98C10.9355 128.37 11.3055 127.74 11.7155 127.14L10.5155 128.97V128.98Z" fill="#7EA451"/>
<path d="M78.1955 407.14C78.0855 407.19 77.9855 407.24 77.8755 407.29L80.9055 417.57C183.806 435.91 270.956 418.31 287.646 414.52C283.956 406.82 280.166 398.89 276.296 390.76C262.906 392.42 158.026 404.59 73.5555 392.67L77.1255 404.77L78.1955 407.14Z" fill="#7EA451"/>
<path d="M92.5355 456.98C92.5355 456.98 92.5055 456.88 92.4855 456.84L92.5155 456.96V456.99L92.5355 456.98Z" fill="#7EA451"/>
<path d="M274.645 387.3C269.125 375.68 263.455 363.67 257.705 351.39C244.155 354.7 152.915 375.53 64.3455 361.49L72.4255 388.86C154.465 400.8 257.055 389.43 274.645 387.3Z" fill="#7EA451"/>
<path d="M144.116 459.53C153.316 460.06 162.516 460.42 171.616 460.6C192.196 461 212.186 460.54 230.016 459.44C232.326 459.3 233.526 461.33 233.176 463.09C263.916 457.01 298.336 459.17 309.706 460.15C303.386 447.18 296.516 432.99 289.256 417.88C274.536 421.29 186.556 439.7 82.0555 421.47L91.6955 454.14C108.456 456.75 126.236 458.5 144.116 459.53Z" fill="#7EA451"/>
<path d="M16.7455 193.04C16.3155 191.69 15.8555 190.29 15.4155 188.9C14.8155 189.16 14.2655 189.42 13.6655 189.68L24.7755 227.33C25.3455 227.04 25.8755 226.76 26.4455 226.47L27.9155 229.32C27.1555 229.71 26.4555 230.08 25.7055 230.47L30.7455 247.54C31.1155 247.35 31.4655 247.17 31.8455 246.98L33.2855 249.84C32.7355 250.12 32.2155 250.39 31.6755 250.67L41.8255 285.08L41.9255 285.14C41.9255 285.14 41.8955 285.19 41.8655 285.23L46.1255 299.65C136.456 325.11 225.086 314.67 239.736 312.66C237.106 306.94 234.466 301.19 231.826 295.42C220.366 296.58 136.056 303.39 36.9655 267.34C36.6555 265.96 36.3355 264.54 36.0255 263.12C132.516 298.78 215.216 293.32 230.236 291.92C225.286 281.06 220.346 270.12 215.436 259.16C204.276 259.04 110.906 256.93 24.9555 220.04C24.5255 218.54 24.0855 217.03 23.6355 215.48C106.376 251.81 197.066 255.2 213.806 255.5C211.666 250.71 209.536 245.91 207.416 241.12C194.696 240.58 117.616 235.61 16.7555 193.06L16.7455 193.04Z" fill="#7EA451"/>
<path d="M256.136 348.03C251.236 337.56 246.286 326.89 241.306 316.1C230.506 317.65 140.156 329.33 47.3156 303.77L63.2056 357.62C150.356 371.91 240.726 351.75 256.136 348.03Z" fill="#7EA451"/>
<path d="M10.5255 128.99C7.9255 132.87 5.4855 136.86 3.3055 141C2.7355 142.09 2.1755 143.19 1.6355 144.29C1.3555 144.87 1.0355 145.43 0.765503 146.01L12.7355 186.58C13.2555 186.35 13.7455 186.13 14.2655 185.9L15.4255 188.56C113.146 230.28 188.826 236.49 205.736 237.38C199.745 223.79 193.846 210.25 188.126 196.86C173.016 194.35 85.0255 178.1 10.5155 128.99H10.5255Z" fill="#7EA451"/>
<path d="M15.4355 188.55L14.2755 185.89C13.7555 186.12 13.2655 186.34 12.7455 186.57L13.6555 189.67C14.2455 189.41 14.8055 189.15 15.4055 188.89C15.8455 190.27 16.3055 191.68 16.7355 193.03C117.595 235.58 194.675 240.55 207.395 241.09C206.845 239.85 206.305 238.61 205.755 237.37C188.845 236.48 113.165 230.27 15.4455 188.55H15.4355Z" fill="#C6DE88"/>
<path d="M27.9155 229.32L26.4455 226.47C25.8755 226.76 25.3355 227.04 24.7755 227.33L25.6955 230.46C26.4455 230.07 27.1555 229.7 27.9055 229.31L27.9155 229.32Z" fill="#C6DE88"/>
<path d="M33.2655 249.84L31.8255 246.98C31.4555 247.17 31.1055 247.35 30.7255 247.54L31.6455 250.67C32.1955 250.39 32.7055 250.12 33.2555 249.84H33.2655Z" fill="#C6DE88"/>
<path d="M41.9055 285.13L41.8055 285.07L41.8555 285.22C41.8555 285.22 41.9055 285.15 41.9155 285.13H41.9055Z" fill="#C6DE88"/>
<path d="M78.1955 407.14L77.1255 404.77L77.8655 407.29C77.9755 407.24 78.0755 407.19 78.1855 407.14H78.1955Z" fill="#C6DE88"/>
<path d="M92.9955 458.57C92.9955 458.57 93.0355 458.55 93.0455 458.54C93.1155 458.5 93.1855 458.47 93.2555 458.43L92.5255 456.98V456.95L92.9855 458.57H92.9955Z" fill="#C6DE88"/>
<path d="M105.546 501.1C105.686 501.02 105.816 500.95 105.946 500.88L105.166 499.45L104.936 499.03L105.546 501.1Z" fill="#C6DE88"/>
<path d="M92.4854 456.84L91.6854 454.14C91.6854 454.14 91.6054 454.14 91.5754 454.12C91.8754 455.02 92.1854 455.93 92.4854 456.83V456.84Z" fill="#7EA451"/>
<path d="M69.8555 392.16C71.0755 392.34 72.3255 392.51 73.5555 392.68L72.4255 388.86C71.1055 388.67 69.7855 388.49 68.4755 388.29C68.8955 389.5 69.3755 390.83 69.8455 392.17L69.8555 392.16Z" fill="#7EA451"/>
<path d="M59.3155 360.68C60.9955 360.97 62.6755 361.23 64.3555 361.49L63.2155 357.62C61.5155 357.34 59.8155 357.07 58.1155 356.77C58.5155 358.07 58.8955 359.35 59.3155 360.68Z" fill="#7EA451"/>
<path d="M44.3955 302.97C45.3755 303.25 46.3455 303.5 47.3255 303.77L46.1055 299.64C45.2555 299.4 44.4055 299.18 43.5455 298.93C43.8255 300.27 44.1055 301.62 44.3855 302.97H44.3955Z" fill="#7EA451"/>
<path d="M80.1955 421.16C80.8155 421.27 81.4255 421.36 82.0555 421.47L80.9055 417.57C80.2055 417.44 79.5055 417.34 78.8055 417.21C79.2655 418.51 79.7355 419.82 80.2055 421.16H80.1955Z" fill="#7EA451"/>
<path d="M136.195 39.0004L134.675 35.9304L130.135 26.7504C127.795 22.0304 121.175 21.8704 118.555 26.4404C112.275 37.4004 103.735 47.0604 93.6255 54.6404C93.2155 54.9504 92.8555 55.2904 92.4855 55.6304C90.4955 57.4404 88.9855 59.6504 88.1255 62.1104C87.1355 64.9304 86.9655 68.0204 87.7855 71.0504C89.2955 76.6204 91.5555 81.9604 94.3455 87.0204C94.8855 87.9903 95.4755 88.9304 96.0455 89.8704C99.9455 96.2504 104.795 102.02 110.415 106.95C111.335 107.76 112.235 108.59 113.195 109.36C117.555 112.81 122.285 115.78 127.355 118.09L128.595 116.76C141.085 128.32 155.815 132.84 162.235 134.35C159.095 126.47 156.055 118.72 153.145 111.15C150.005 103.4 140.515 77.6104 150.555 72.8004C151.185 72.5004 151.905 72.3304 152.635 72.2204L147.375 61.5904L145.895 58.6104L136.185 39.0004H136.195Z" fill="#7EA451"/>
<path d="M779.405 1376.71C778.055 1373.4 776.715 1370.13 775.345 1366.78C763.505 1337.78 751.145 1307.52 738.135 1276.11C737.675 1274.99 737.205 1273.87 736.745 1272.75C735.405 1269.52 734.055 1266.27 732.695 1263.01C732.225 1261.89 731.755 1260.76 731.285 1259.64C726.985 1249.31 722.615 1238.86 718.165 1228.29C717.565 1226.87 716.965 1225.45 716.365 1224.02C712.965 1215.96 709.535 1207.86 706.045 1199.67C705.415 1198.19 704.765 1196.68 704.135 1195.2C701.405 1188.81 698.655 1182.39 695.865 1175.92C695.285 1174.58 694.705 1173.24 694.135 1171.9C691.135 1164.94 688.095 1157.93 685.015 1150.88C684.295 1149.22 683.585 1147.58 682.855 1145.92C678.725 1136.46 674.505 1126.91 670.235 1117.29C669.435 1115.49 668.645 1113.7 667.845 1111.9C662.435 1099.74 656.905 1087.45 651.265 1075.05C650.585 1073.56 649.925 1072.09 649.245 1070.59C645.175 1061.67 641.035 1052.67 636.845 1043.62C635.905 1041.59 634.965 1039.56 634.015 1037.53C629.535 1027.89 624.995 1018.2 620.375 1008.42C619.545 1006.68 618.715 1004.93 617.885 1003.18C615.275 997.68 612.645 992.15 609.975 986.61C609.165 984.92 608.345 983.22 607.525 981.52C603.715 973.61 599.865 965.65 595.955 957.66C594.865 955.42 593.785 953.2 592.685 950.95C591.105 947.74 589.495 944.49 587.905 941.27C586.915 939.27 585.935 937.28 584.945 935.28C580.365 926.03 575.715 916.74 570.995 907.38C570.225 905.84 569.435 904.3 568.655 902.76C563.785 893.15 558.855 883.48 553.835 873.76C553.025 872.19 552.225 870.63 551.415 869.06C548.625 863.66 545.785 858.23 542.945 852.8C542.215 851.41 541.505 850.03 540.775 848.64C538.045 843.43 535.265 838.19 532.495 832.95C531.755 831.56 531.025 830.17 530.285 828.78C527.945 824.38 525.575 819.95 523.195 815.53C522.475 814.18 521.745 812.83 521.025 811.48C513.345 797.2 505.495 782.81 497.465 768.32C496.755 767.04 496.055 765.77 495.345 764.49C494.655 763.25 493.985 762.02 493.295 760.78C488.575 752.29 483.915 743.87 479.285 735.48C478.585 734.21 477.885 732.95 477.195 731.68C469.635 717.95 462.185 704.35 454.875 690.89C454.275 689.79 453.675 688.69 453.085 687.59C449.065 680.18 445.095 672.83 441.155 665.5C440.555 664.39 439.965 663.29 439.375 662.19C432.305 649.05 425.355 636.04 418.535 623.19C417.945 622.08 417.345 620.96 416.755 619.85C414.285 615.19 411.835 610.55 409.395 605.93C408.805 604.81 408.195 603.67 407.605 602.55C405.675 598.88 403.775 595.25 401.855 591.61C400.925 589.84 399.975 588.05 399.055 586.28C394.945 578.44 390.905 570.68 386.895 562.96C385.795 560.84 384.685 558.71 383.585 556.6C379.275 548.3 375.035 540.07 370.845 531.92C370.005 530.29 369.165 528.66 368.335 527.03C364.555 519.65 360.795 512.32 357.105 505.07C356.405 503.69 355.715 502.33 355.015 500.95C351.845 494.71 348.715 488.53 345.615 482.4C344.865 480.91 344.105 479.42 343.365 477.93C338.245 467.77 333.215 457.75 328.285 447.88C327.495 446.3 326.705 444.71 325.915 443.14C321.265 433.81 316.715 424.63 312.255 415.57C311.485 414 310.715 412.44 309.945 410.88C305.195 401.24 300.555 391.75 296.025 382.44C295.265 380.87 294.505 379.31 293.745 377.75C284.995 359.76 276.655 342.41 268.705 325.73C268.105 324.47 267.495 323.2 266.905 321.95C262.915 313.56 259.025 305.35 255.245 297.33C254.655 296.07 254.065 294.82 253.475 293.57C251.245 288.83 249.055 284.17 246.905 279.56C246.295 278.25 245.685 276.95 245.085 275.66C240.675 266.21 236.405 257.03 232.315 248.15C231.725 246.88 231.155 245.64 230.585 244.39C228.845 240.6 227.125 236.87 225.445 233.2C224.815 231.84 224.185 230.46 223.565 229.11C215.445 211.35 208.025 194.93 201.325 179.93C200.725 178.59 200.145 177.29 199.555 175.97C194.045 163.61 189.035 152.25 184.535 141.98C183.935 140.61 183.355 139.28 182.775 137.94C180.715 133.21 178.765 128.72 176.925 124.49C176.315 123.08 175.715 121.69 175.135 120.34C162.375 90.7403 155.715 74.3703 155.445 73.6903L154.755 71.9903L153.045 72.1703C153.475 67.8303 153.885 63.2503 154.295 58.5703C151.935 59.5903 149.635 60.6103 147.385 61.6303L152.645 72.2603C151.905 72.3703 151.195 72.5303 150.565 72.8403C140.525 77.6403 150.015 103.44 153.155 111.19C156.065 118.76 159.095 126.51 162.245 134.39C162.785 135.74 163.335 137.11 163.875 138.47C167.865 148.41 172.005 158.55 176.295 168.85C176.865 170.21 177.435 171.58 178.005 172.95C180.765 179.55 183.575 186.22 186.435 192.92C186.995 194.25 187.565 195.57 188.135 196.9C193.865 210.28 199.755 223.83 205.745 237.42C206.295 238.66 206.835 239.9 207.385 241.14C209.505 245.93 211.635 250.73 213.775 255.52C214.325 256.74 214.865 257.96 215.415 259.18C220.315 270.14 225.265 281.08 230.215 291.94C230.745 293.11 231.275 294.28 231.815 295.44C234.455 301.21 237.085 306.97 239.725 312.68C240.255 313.83 240.785 314.98 241.315 316.13C246.285 326.92 251.245 337.59 256.145 348.06C256.675 349.18 257.195 350.3 257.715 351.42C263.465 363.7 269.135 375.71 274.655 387.33C275.205 388.49 275.755 389.64 276.305 390.79C280.175 398.92 283.955 406.85 287.655 414.55C288.195 415.67 288.735 416.8 289.265 417.91C296.525 433.02 303.395 447.21 309.715 460.18C310.345 461.47 310.965 462.73 311.575 464C322.355 486.08 331.435 504.45 337.955 517.55C338.785 519.22 339.555 520.77 340.305 522.27C345.735 533.15 348.895 539.4 349.095 539.8L356.835 554.18L359.725 559.55L364.585 568.57C367.325 573.66 370.015 578.66 372.695 583.63C373.405 584.94 374.115 586.27 374.825 587.58C381.505 599.99 387.995 612.02 394.305 623.75C395.005 625.05 395.685 626.32 396.385 627.61C405.045 643.71 413.375 659.2 421.395 674.12C422.065 675.37 422.735 676.61 423.395 677.85C427.545 685.58 431.635 693.2 435.615 700.64C436.285 701.9 436.945 703.12 437.615 704.37C444.335 716.93 450.855 729.12 457.145 740.93C457.815 742.18 458.475 743.43 459.135 744.67C464.395 754.54 469.505 764.16 474.485 773.57C475.165 774.85 475.845 776.13 476.515 777.41C479.425 782.91 482.305 788.36 485.125 793.72C485.805 795.01 486.475 796.29 487.155 797.57C492.115 807.01 496.955 816.23 501.675 825.28C502.365 826.61 503.065 827.94 503.745 829.26C507.295 836.07 510.765 842.77 514.185 849.39C514.905 850.78 515.625 852.17 516.335 853.56C518.525 857.82 520.705 862.05 522.855 866.24C523.605 867.71 524.345 869.16 525.095 870.61C531.515 883.17 537.745 895.46 543.815 907.58C544.555 909.06 545.305 910.54 546.035 912.02C552.265 924.49 558.335 936.79 564.305 949.03C565.055 950.57 565.815 952.12 566.565 953.66C569.385 959.47 572.185 965.27 574.965 971.06C575.635 972.47 576.315 973.87 576.985 975.28C581.855 985.46 586.665 995.66 591.465 1005.93C592.225 1007.55 592.975 1009.17 593.735 1010.79C597.175 1018.18 600.605 1025.62 604.035 1033.12C604.695 1034.56 605.355 1036 606.015 1037.45C610.785 1047.91 615.565 1058.53 620.385 1069.34C620.975 1070.65 621.555 1071.95 622.135 1073.27C624.235 1077.99 626.345 1082.77 628.465 1087.58C629.105 1089.04 629.755 1090.52 630.405 1091.99C632.925 1097.72 635.455 1103.5 638.005 1109.37C638.575 1110.67 639.135 1111.99 639.705 1113.3C642.135 1118.91 644.585 1124.58 647.055 1130.33C647.605 1131.61 648.155 1132.89 648.715 1134.18C652.855 1143.84 657.065 1153.75 661.355 1163.88C661.895 1165.15 662.425 1166.41 662.965 1167.69C666.505 1176.08 670.105 1184.65 673.765 1193.41C674.315 1194.73 674.865 1196.04 675.425 1197.37C680.515 1209.58 685.745 1222.19 691.105 1235.2C691.645 1236.52 692.185 1237.82 692.735 1239.15C696.385 1248.02 700.115 1257.1 703.905 1266.38C704.415 1267.62 704.905 1268.84 705.425 1270.08C707.945 1276.26 710.495 1282.51 713.095 1288.88C713.595 1290.1 714.095 1291.35 714.595 1292.58C715.625 1295.12 716.665 1297.67 717.705 1300.24C718.195 1301.46 718.685 1302.64 719.175 1303.87C723.015 1313.34 726.955 1323.06 730.955 1332.97C731.425 1334.13 731.885 1335.26 732.355 1336.42C739.705 1354.62 747.335 1373.57 755.285 1393.4C760.215 1405.68 765.265 1418.27 770.445 1431.23C785.865 1469.75 802.075 1509.61 818.495 1548.61L846.145 1535.38C825.445 1489.11 803.735 1436.24 779.425 1376.72L779.405 1376.71Z" fill="#BCD873"/>
</g>
<defs>
<clipPath id="clip0_4_747">
<rect width="855.73" height="1548.6" fill="white" transform="translate(0.125488)"/>
</clipPath>
</defs>
</svg>
